<svg width="23" height="24" viewBox="0 0 23 24" fill="none" xmlns="http://www.w3.org/2000/svg">
<path d="M10.2541 6.21508H16.6188C16.7662 6.21508 16.8767 6.25191 16.9503 6.32557C17.0387 6.41397 17.0829 6.53184 17.0829 6.67917L17.0829 13.0439C17.0682 13.3533 16.9061 13.5153 16.5967 13.53C16.2873 13.5153 16.1253 13.3533 16.1105 13.0439L16.0884 7.89465L6.34251 17.6406C6.09205 17.8321 5.86369 17.8395 5.65743 17.6627C5.45116 17.4269 5.45116 17.1912 5.65743 16.9555L15.4034 7.20956L10.2541 7.18746C9.94475 7.17273 9.78269 7.01066 9.76795 6.70127C9.78269 6.39187 9.94475 6.22981 10.2541 6.21508Z" fill="white"/>
</svg>
